<?xml version="1.0" encoding="UTF-8"?>
<svg xmlns="http://www.w3.org/2000/svg" xmlns:xlink="http://www.w3.org/1999/xlink" version="1.1" id="b" x="0px" y="0px" viewBox="0 0 30.4 31.5" style="enable-background:new 0 0 30.4 31.5;" xml:space="preserve">
<style type="text/css">
	.st0{fill:none;stroke:#D20000;stroke-width:1.5;stroke-linejoin:round;}
</style>
<g id="c">
	<g id="d">
		<path class="st0" d="M10.2,20.8h10c1.1,0,2,0.9,2,2v6c0,1.1-0.9,2-2,2h-10c-1.1,0-2-0.9-2-2v-6C8.2,21.6,9.1,20.8,10.2,20.8z"></path>
		<path class="st0" d="M20.2,20.8v-4.1c0-2.4-1.6-4.6-4-5.1c-3.2-0.6-6,1.8-6,4.9v4.2"></path>
		<path class="st0" d="M24.2,28.8h1c1.1,0,2-0.9,2-2v-11h1.5c0.9,0,1.3-1.1,0.7-1.7L15.2,0.8L1.1,14c-0.7,0.6-0.2,1.7,0.7,1.7h1.5    v11c0,1.1,0.9,2,2,2h1"></path>
	</g>
</g>
</svg>
